<svg xmlns="http://www.w3.org/2000/svg" width="261" height="261" viewBox="0 0 261 261" fill="none"><g clip-path="url(#clip0_4150_3747)"><mask id="mask0_4150_3747" style="mask-type:luminance" maskUnits="userSpaceOnUse" x="-108" y="-21" width="477" height="331"><path d="M368.315 -20.3906H-107.357V309.938H368.315V-20.3906Z" fill="white"></path></mask><g mask="url(#mask0_4150_3747)"><path d="M109.207 170.671C109.471 171.2 109.868 171.64 110.264 171.992C110.705 172.301 111.233 172.477 111.894 172.477V175.032C109.736 175.032 108.062 173.974 106.917 171.816C106.52 171.464 106.212 171.2 105.992 171.024C105.772 170.847 105.507 170.715 105.155 170.627C104.847 170.539 104.406 170.451 103.922 170.451C103.261 170.451 102.689 170.583 102.16 170.891C101.632 171.156 101.191 171.596 100.927 172.125C100.619 172.653 100.486 173.27 100.486 173.93C100.486 174.591 100.663 175.208 100.971 175.736C101.279 176.265 101.72 176.661 102.248 176.969C102.777 177.278 103.393 177.41 104.054 177.41C104.979 177.41 105.772 177.146 106.344 176.661L108.018 178.423C107.445 178.907 106.829 179.26 106.124 179.48C105.463 179.744 104.759 179.876 104.01 179.876C102.821 179.876 101.764 179.612 100.795 179.084C99.8258 178.555 99.077 177.85 98.5485 176.969C98.02 176.089 97.7117 175.12 97.7117 174.063C97.7117 172.961 97.9759 171.992 98.5045 171.112C99.033 170.231 99.7377 169.526 100.663 169.042C101.588 168.557 102.645 168.293 103.834 168.293C104.494 168.293 105.111 168.381 105.64 168.557C105.287 167.544 104.803 166.751 104.23 166.223C103.658 165.694 102.953 165.43 102.072 165.43H102.028C101.455 165.43 100.927 165.518 100.398 165.694C99.8698 165.87 99.4294 166.135 99.077 166.399L97.7557 164.681C98.3283 164.153 99.033 163.756 99.8258 163.448C100.619 163.184 101.411 163.008 102.204 163.008C103.437 163.008 104.406 163.228 105.199 163.668C105.992 164.109 106.608 164.725 107.049 165.518C107.533 166.311 107.974 167.368 108.37 168.689C108.679 169.394 108.943 170.099 109.207 170.671ZM102.909 174.855C102.645 174.591 102.512 174.239 102.512 173.842C102.512 173.446 102.645 173.094 102.909 172.829C103.173 172.565 103.525 172.433 103.966 172.433C104.406 172.433 104.759 172.565 105.023 172.829C105.287 173.094 105.419 173.446 105.419 173.842C105.419 174.239 105.287 174.591 105.023 174.855C104.759 175.12 104.406 175.252 103.966 175.252C103.481 175.296 103.129 175.164 102.909 174.855Z" fill="#BB1F49"></path><path d="M125.679 174.987C125.679 176.044 125.459 176.925 124.974 177.674C124.49 178.423 123.829 178.995 122.904 179.348C122.023 179.744 120.922 179.92 119.689 179.92C119.029 179.92 118.412 179.876 117.883 179.744C117.355 179.656 116.562 179.436 115.549 179.128L115.681 176.617C116.342 176.837 117.002 177.013 117.751 177.146C118.5 177.278 119.161 177.366 119.733 177.366C121.803 177.366 122.86 176.573 122.86 174.987H120.438C119.337 174.987 118.28 174.723 117.355 174.195C116.43 173.666 115.681 172.917 115.153 171.992C114.624 171.068 114.36 170.055 114.36 168.953C114.36 167.94 114.624 166.971 115.153 166.135C115.681 165.298 116.43 164.593 117.355 164.109C118.28 163.624 119.293 163.36 120.394 163.36H125.723V174.987H125.679ZM122.86 172.477V165.738H120.35C119.777 165.738 119.205 165.87 118.72 166.179C118.236 166.487 117.839 166.883 117.575 167.368C117.311 167.852 117.135 168.425 117.135 168.997C117.135 169.658 117.267 170.231 117.575 170.759C117.883 171.288 118.236 171.684 118.764 171.992C119.249 172.301 119.821 172.433 120.394 172.433H122.86V172.477Z" fill="#BB1F49"></path><path d="M135.941 174.987H132.77C132.726 176.309 132.373 177.322 131.713 177.982C131.052 178.643 130.039 178.995 128.718 178.995H127.396V176.309H128.365C128.894 176.309 129.29 176.133 129.555 175.78C129.863 175.428 129.995 174.987 129.995 174.415V163.272H132.726V172.433H135.897V174.987H135.941Z" fill="#BB1F49"></path><path d="M151.841 172.477V175.031H135.412V172.477H138.716C138.363 171.992 138.099 171.42 137.879 170.847C137.703 170.231 137.57 169.614 137.57 168.953C137.57 167.94 137.835 166.971 138.363 166.135C138.892 165.298 139.641 164.593 140.565 164.109C141.49 163.624 142.503 163.36 143.604 163.36H148.978V172.477H151.841ZM146.115 172.477V165.738H143.604C143.032 165.738 142.459 165.87 141.975 166.179C141.49 166.487 141.094 166.883 140.83 167.368C140.565 167.852 140.389 168.425 140.389 168.997C140.389 169.658 140.521 170.231 140.83 170.759C141.138 171.288 141.49 171.684 142.019 171.992C142.503 172.301 143.076 172.433 143.649 172.433H146.115V172.477ZM143.34 161.246C143.076 160.982 142.944 160.629 142.944 160.233C142.944 159.836 143.076 159.484 143.34 159.22C143.604 158.955 143.957 158.823 144.397 158.823C144.838 158.823 145.19 158.955 145.454 159.22C145.719 159.484 145.851 159.836 145.851 160.233C145.851 160.629 145.719 160.982 145.454 161.246C145.19 161.51 144.838 161.642 144.397 161.642C143.913 161.686 143.604 161.51 143.34 161.246Z" fill="#BB1F49"></path><path d="M151.62 172.477H154.439V159.528H157.302V174.987H151.62V172.477Z" fill="#BB1F49"></path><path d="M164.26 159.528H161.441V174.987H164.26V159.528Z" fill="#BB1F49"></path></g><mask id="mask1_4150_3747" style="mask-type:luminance" maskUnits="userSpaceOnUse" x="-108" y="-21" width="477" height="331"><path d="M368.315 -20.3906H-107.357V309.938H368.315V-20.3906Z" fill="white"></path></mask><g mask="url(#mask1_4150_3747)"><mask id="mask2_4150_3747" style="mask-type:luminance" maskUnits="userSpaceOnUse" x="153" y="72" width="17" height="19"><path d="M153.823 90.8639C155.54 90.908 159.108 90.6877 162.103 89.6747C166.111 86.3715 168.489 82.1873 169.546 77.5627C167.917 75.801 166.155 74.2154 164.305 72.7179C163.909 80.3815 159.813 86.944 153.823 90.8639Z" fill="white"></path></mask><g mask="url(#mask2_4150_3747)"><path d="M145.19 84.5216L159.328 65.2305L178.223 79.1042L164.04 98.3514L145.19 84.5216Z" fill="url(#paint0_linear_4150_3747)"></path></g></g><mask id="mask3_4150_3747" style="mask-type:luminance" maskUnits="userSpaceOnUse" x="-108" y="-21" width="477" height="331"><path d="M368.315 -20.3906H-107.357V309.938H368.315V-20.3906Z" fill="white"></path></mask><g mask="url(#mask3_4150_3747)"><mask id="mask4_4150_3747" style="mask-type:luminance" maskUnits="userSpaceOnUse" x="163" y="73" width="15" height="17"><path d="M170.954 78.0912C169.545 82.4956 166.902 86.2833 163.379 89.1021C166.99 87.8248 170.69 85.7548 174.302 82.5396C175.447 81.5266 176.592 80.3815 177.693 79.1482C175.975 76.9901 174.037 75.0522 171.923 73.2904C171.791 74.92 171.439 76.5496 170.954 78.0912Z" fill="white"></path></mask><g mask="url(#mask4_4150_3747)"><path d="M156.156 84.3895L167.651 66.684L184.96 77.9592L173.465 95.6207L156.156 84.3895Z" fill="url(#paint1_linear_4150_3747)"></path></g></g><mask id="mask5_4150_3747" style="mask-type:luminance" maskUnits="userSpaceOnUse" x="-108" y="-21" width="477" height="331"><path d="M368.315 -20.3906H-107.357V309.938H368.315V-20.3906Z" fill="white"></path></mask><g mask="url(#mask5_4150_3747)"><mask id="mask6_4150_3747" style="mask-type:luminance" maskUnits="userSpaceOnUse" x="105" y="67" width="84" height="76"><path d="M112.904 77.2543C108.103 83.7288 105.461 91.8328 105.284 100.509C104.844 123.544 123.122 142.527 146.157 142.968C152.94 143.1 159.37 141.602 165.052 138.827C167.122 137.814 169.148 136.625 170.998 135.304C173.64 133.454 176.063 131.296 178.177 128.874C183.154 123.192 186.545 116.277 187.91 108.878C188.571 105.266 188.835 101.566 188.527 97.9109C188.175 94.035 187.294 90.2913 185.973 86.6356C185.356 84.962 184.607 83.3324 183.77 81.7908C182.361 79.1482 180.952 77.2984 180.996 77.2103C180.952 77.2543 178.573 81.2183 172.936 85.2703C166.505 89.8949 159.546 91.6126 153.688 91.5245C150.253 91.4805 140.475 90.8198 131.667 82.0991C124.752 75.2724 124.796 67.3445 124.796 67.3445C123.078 67.873 116.78 72.0131 112.904 77.2543Z" fill="white"></path></mask><g mask="url(#mask6_4150_3747)"><path d="M122.726 32.9904L219.886 83.5085L170.998 177.498L73.8374 126.98L122.726 32.9904Z" fill="url(#paint2_linear_4150_3747)"></path></g></g><mask id="mask7_4150_3747" style="mask-type:luminance" maskUnits="userSpaceOnUse" x="-108" y="-21" width="477" height="331"><path d="M368.315 -20.3906H-107.357V309.938H368.315V-20.3906Z" fill="white"></path></mask><g mask="url(#mask7_4150_3747)"><mask id="mask8_4150_3747" style="mask-type:luminance" maskUnits="userSpaceOnUse" x="-108" y="-21" width="477" height="331"><path d="M368.316 -20.3906H-107.356V309.938H368.316V-20.3906Z" fill="white"></path></mask><g mask="url(#mask8_4150_3747)"><path d="M147.084 24.0054C149.11 16.0775 151.532 12.51 155.981 7.48902C149.991 8.32585 144.441 10.6602 139.817 14.1837C138.716 9.51503 136.425 5.24279 133.298 1.80737C129.863 4.97852 127.264 9.03055 125.811 13.6111C121.45 9.73525 115.328 7.18071 109.427 5.90344C113.611 11.7613 116.518 15.7692 117.31 21.9794C131.757 19.0725 143.164 21.2307 147.084 24.0054Z" fill="#BB1F49"></path></g><mask id="mask9_4150_3747" style="mask-type:luminance" maskUnits="userSpaceOnUse" x="-108" y="-21" width="477" height="331"><path d="M368.316 -20.3906H-107.356V309.938H368.316V-20.3906Z" fill="white"></path></mask><g mask="url(#mask9_4150_3747)"><path d="M133.872 61.3545C132.859 49.0223 142.768 43.2966 145.852 41.6229C139.465 42.5478 134.224 45.9833 130.524 51.0483C128.983 53.1624 126.472 57.5227 126.208 64.4816C128.542 63.3365 131.361 62.2354 133.872 61.3545Z" fill="#BB1F49"></path></g></g><mask id="mask10_4150_3747" style="mask-type:luminance" maskUnits="userSpaceOnUse" x="-108" y="-21" width="477" height="331"><path d="M368.315 -20.3906H-107.357V309.938H368.315V-20.3906Z" fill="white"></path></mask><g mask="url(#mask10_4150_3747)"><mask id="mask11_4150_3747" style="mask-type:luminance" maskUnits="userSpaceOnUse" x="67" y="29" width="85" height="101"><path d="M75.9077 55.8051C70.5784 65.5829 67.5834 76.6378 67.4953 87.7369C67.3632 103.769 73.3531 118.435 83.2189 129.578C76.5683 75.0523 119.027 38.1876 146.73 41.2707C148.139 40.8303 150.077 39.8613 151.663 38.3198C144.264 32.0215 135.455 29.3348 126.382 29.3348C107.972 29.2908 88.2399 40.4339 75.9077 55.8051Z" fill="white"></path></mask><g mask="url(#mask11_4150_3747)"><path d="M67.1875 29.2907L151.663 29.2026L151.796 129.534L67.3196 129.666L67.1875 29.2907Z" fill="url(#paint3_linear_4150_3747)"></path></g></g><mask id="mask12_4150_3747" style="mask-type:luminance" maskUnits="userSpaceOnUse" x="-108" y="-21" width="477" height="331"><path d="M368.315 -20.3906H-107.357V309.938H368.315V-20.3906Z" fill="white"></path></mask><g mask="url(#mask12_4150_3747)"><mask id="mask13_4150_3747" style="mask-type:luminance" maskUnits="userSpaceOnUse" x="75" y="21" width="80" height="35"><path d="M141.358 27.617C141.358 27.1766 141.534 26.7362 141.843 26.4279C142.019 26.2517 142.195 26.1196 142.415 26.0315C142.591 25.9434 142.812 25.9434 142.988 25.9434C143.913 25.9434 144.661 26.6921 144.661 27.617C144.661 28.542 143.913 29.2907 142.988 29.2907C142.107 29.2907 141.402 28.542 141.358 27.617ZM129.863 21.6711C105.991 22.0235 86.4356 36.4258 75.9092 55.8051C98.5036 33.0344 127.573 21.2747 151.708 38.3197C152.017 38.0554 152.281 37.7471 152.545 37.4388C153.206 36.646 153.734 35.7211 154.087 34.7081C150.519 24.2697 142.195 21.6711 131.008 21.6711C130.612 21.6711 130.215 21.6711 129.863 21.6711Z" fill="white"></path></mask><g mask="url(#mask13_4150_3747)"><path d="M71.5054 21.8473L152.766 11.3208L158.448 55.2324L77.187 65.7589L71.5054 21.8473Z" fill="url(#paint4_linear_4150_3747)"></path></g></g><mask id="mask14_4150_3747" style="mask-type:luminance" maskUnits="userSpaceOnUse" x="-108" y="-21" width="477" height="331"><path d="M368.315 -20.3906H-107.357V309.938H368.315V-20.3906Z" fill="white"></path></mask><g mask="url(#mask14_4150_3747)"><mask id="mask15_4150_3747" style="mask-type:luminance" maskUnits="userSpaceOnUse" x="81" y="40" width="85" height="111"><path d="M83.1762 129.534C94.6716 142.483 111.496 150.675 130.171 150.719C136.161 150.719 141.931 149.883 147.436 148.341C150.915 147.372 154.307 146.095 157.522 144.509C159.064 143.672 160.561 142.792 161.97 141.779C163.028 141.03 164.085 140.237 165.054 139.356C159.284 142.307 152.721 143.981 145.806 143.981C122.287 144.025 103.172 124.954 103.128 101.434C103.128 92.5816 105.727 84.3014 110.439 77.5187C112.025 75.2284 113.919 73.2024 115.68 71.5287C119.512 68.0052 124.181 65.5828 124.445 65.4507C124.445 65.4507 124.577 65.4066 124.621 65.3626C124.665 65.3185 124.621 65.2745 124.621 65.1864C124.709 62.1474 125.238 59.0643 126.339 56.2455C128.277 51.3126 131.624 46.7761 136.381 44.2656C138.363 43.2086 140.433 42.4598 142.635 41.9313C143.957 41.623 145.322 41.4028 146.687 41.2707C146.687 41.2707 146.687 41.2707 146.731 41.2707C145.278 41.0064 143.736 40.8743 142.195 40.8743C114.227 40.8743 71.3284 82.4516 83.1762 129.534Z" fill="white"></path></mask><g mask="url(#mask15_4150_3747)"><path d="M26.6233 127.772L90.9272 2.7323L209.713 63.821L145.453 188.861L26.6233 127.772Z" fill="url(#paint5_linear_4150_3747)"></path></g></g><mask id="mask16_4150_3747" style="mask-type:luminance" maskUnits="userSpaceOnUse" x="-108" y="-21" width="477" height="331"><path d="M368.315 -20.3906H-107.357V309.938H368.315V-20.3906Z" fill="white"></path></mask><g mask="url(#mask16_4150_3747)"><mask id="mask17_4150_3747" style="mask-type:luminance" maskUnits="userSpaceOnUse" x="146" y="35" width="14" height="10"><path d="M152.192 38.584C152.192 38.584 152.148 38.6281 152.104 38.6281C150.739 39.9494 148.933 40.8743 146.951 41.2707C147.039 41.2707 147.127 41.3147 147.215 41.3147C147.259 41.3147 147.347 41.3147 147.391 41.3147C154.086 41.1826 159.812 44.8823 159.812 44.8823C160.428 39.6411 156.112 36.4699 154.659 35.501C154.526 35.4129 154.394 35.2807 154.306 35.2367C153.91 36.4699 153.161 37.6591 152.192 38.584Z" fill="white"></path></mask><g mask="url(#mask17_4150_3747)"><path d="M149.331 30.1716L164.129 36.9544L158.14 50.0354L143.341 43.2526L149.331 30.1716Z" fill="url(#paint6_linear_4150_3747)"></path></g></g><mask id="mask18_4150_3747" style="mask-type:luminance" maskUnits="userSpaceOnUse" x="-108" y="-21" width="477" height="331"><path d="M368.315 -20.3906H-107.357V309.938H368.315V-20.3906Z" fill="white"></path></mask><g mask="url(#mask18_4150_3747)"><mask id="mask19_4150_3747" style="mask-type:luminance" maskUnits="userSpaceOnUse" x="-108" y="-21" width="477" height="331"><path d="M368.316 -20.3906H-107.356V309.938H368.316V-20.3906Z" fill="white"></path></mask><g mask="url(#mask19_4150_3747)"><path d="M250.147 168.425H191.041V170.759H250.147V168.425Z" fill="#BB1F49"></path></g><mask id="mask20_4150_3747" style="mask-type:luminance" maskUnits="userSpaceOnUse" x="-108" y="-21" width="477" height="331"><path d="M368.316 -20.3906H-107.356V309.938H368.316V-20.3906Z" fill="white"></path></mask><g mask="url(#mask20_4150_3747)"><path d="M68.1573 168.425H9.05054V170.759H68.1573V168.425Z" fill="#BB1F49"></path></g><mask id="mask21_4150_3747" style="mask-type:luminance" maskUnits="userSpaceOnUse" x="-108" y="-21" width="477" height="331"><path d="M368.316 -20.3906H-107.356V309.938H368.316V-20.3906Z" fill="white"></path></mask><g mask="url(#mask21_4150_3747)"><path d="M93.7458 252.108C92.7328 251.536 91.94 250.743 91.3674 249.774C90.7949 248.805 90.4866 247.704 90.4866 246.559C90.4866 245.369 90.7949 244.312 91.3674 243.343C91.94 242.374 92.7768 241.582 93.7899 241.009C94.8029 240.437 95.904 240.172 97.0931 240.172C97.974 240.172 98.8549 240.348 99.7798 240.745C100.661 241.141 101.453 241.67 102.114 242.374C102.775 243.079 103.171 243.916 103.303 244.841H99.8679C99.6036 244.312 99.2072 243.96 98.7227 243.652C98.2383 243.387 97.6657 243.255 97.005 243.255C96.4325 243.255 95.9039 243.387 95.4635 243.652C95.0231 243.916 94.6267 244.312 94.3184 244.797C94.0541 245.281 93.8779 245.898 93.8779 246.603C93.8779 247.307 94.0101 247.924 94.2743 248.408C94.5386 248.893 94.935 249.289 95.4195 249.51C95.9039 249.774 96.4325 249.906 97.005 249.906C97.6217 249.906 98.1502 249.774 98.6347 249.554C99.0751 249.333 99.3834 248.981 99.5596 248.497H96.8729V245.854H103.347C103.391 247.351 103.127 248.629 102.643 249.73C102.158 250.787 101.409 251.624 100.44 252.152C99.4715 252.725 98.3264 252.989 97.005 252.989C95.8599 252.989 94.7588 252.725 93.7458 252.108Z" fill="#BB1F49"></path></g><mask id="mask22_4150_3747" style="mask-type:luminance" maskUnits="userSpaceOnUse" x="-108" y="-21" width="477" height="331"><path d="M368.316 -20.3906H-107.356V309.938H368.316V-20.3906Z" fill="white"></path></mask><g mask="url(#mask22_4150_3747)"><path d="M107.4 252.108C106.387 251.536 105.55 250.743 104.978 249.774C104.361 248.805 104.097 247.704 104.097 246.559C104.097 245.369 104.405 244.312 104.978 243.343C105.594 242.374 106.387 241.582 107.4 241.009C108.413 240.437 109.558 240.172 110.748 240.172C111.937 240.172 113.082 240.437 114.095 241.009C115.108 241.582 115.945 242.374 116.517 243.343C117.134 244.312 117.398 245.413 117.398 246.559C117.398 247.704 117.09 248.805 116.517 249.774C115.901 250.743 115.108 251.536 114.095 252.108C113.082 252.681 111.937 252.989 110.748 252.989C109.514 252.989 108.413 252.725 107.4 252.108ZM112.421 249.465C112.906 249.201 113.346 248.805 113.61 248.276C113.919 247.792 114.051 247.219 114.051 246.559C114.051 245.898 113.919 245.325 113.61 244.841C113.302 244.356 112.906 243.96 112.421 243.652C111.937 243.387 111.364 243.211 110.748 243.211C110.131 243.211 109.558 243.343 109.074 243.652C108.589 243.916 108.149 244.312 107.885 244.841C107.576 245.325 107.444 245.898 107.444 246.559C107.444 247.219 107.576 247.792 107.885 248.276C108.193 248.761 108.589 249.157 109.074 249.465C109.558 249.73 110.131 249.906 110.748 249.906C111.364 249.906 111.937 249.774 112.421 249.465Z" fill="#BB1F49"></path></g><mask id="mask23_4150_3747" style="mask-type:luminance" maskUnits="userSpaceOnUse" x="-108" y="-21" width="477" height="331"><path d="M368.316 -20.3906H-107.356V309.938H368.316V-20.3906Z" fill="white"></path></mask><g mask="url(#mask23_4150_3747)"><path d="M118.896 240.48H122.243V249.686H127.044V252.681H118.896V240.48Z" fill="#BB1F49"></path></g><mask id="mask24_4150_3747" style="mask-type:luminance" maskUnits="userSpaceOnUse" x="-108" y="-21" width="477" height="331"><path d="M368.316 -20.3906H-107.356V309.938H368.316V-20.3906Z" fill="white"></path></mask><g mask="url(#mask24_4150_3747)"><path d="M133.606 240.48C134.928 240.48 136.073 240.745 137.042 241.229C138.055 241.758 138.804 242.462 139.332 243.387C139.861 244.312 140.169 245.369 140.169 246.559C140.169 247.748 139.905 248.849 139.332 249.774C138.804 250.699 138.011 251.403 137.042 251.932C136.073 252.46 134.928 252.681 133.606 252.681H128.409V240.48H133.606ZM135.941 248.893C136.513 248.364 136.777 247.616 136.777 246.603C136.777 245.634 136.513 244.841 135.941 244.312C135.368 243.74 134.575 243.475 133.518 243.475H131.801V249.686H133.518C134.575 249.686 135.368 249.421 135.941 248.893Z" fill="#BB1F49"></path></g><mask id="mask25_4150_3747" style="mask-type:luminance" maskUnits="userSpaceOnUse" x="-108" y="-21" width="477" height="331"><path d="M368.316 -20.3906H-107.356V309.938H368.316V-20.3906Z" fill="white"></path></mask><g mask="url(#mask25_4150_3747)"><path d="M141.623 240.48H150.476V243.475H145.015V245.105H149.639V247.924H145.015V249.686H150.52V252.681H141.623V240.48Z" fill="#BB1F49"></path></g><mask id="mask26_4150_3747" style="mask-type:luminance" maskUnits="userSpaceOnUse" x="-108" y="-21" width="477" height="331"><path d="M368.316 -20.3906H-107.356V309.938H368.316V-20.3906Z" fill="white"></path></mask><g mask="url(#mask26_4150_3747)"><path d="M152.104 240.48H155.054L160.164 247.219V240.48H163.511V252.681H160.604L155.451 245.942V252.681H152.104V240.48Z" fill="#BB1F49"></path></g><mask id="mask27_4150_3747" style="mask-type:luminance" maskUnits="userSpaceOnUse" x="-108" y="-21" width="477" height="331"><path d="M368.316 -20.3906H-107.356V309.938H368.316V-20.3906Z" fill="white"></path></mask><g mask="url(#mask27_4150_3747)"><path d="M172.629 252.108C171.616 251.536 170.823 250.743 170.207 249.774C169.634 248.805 169.326 247.704 169.326 246.559C169.326 245.369 169.634 244.312 170.207 243.343C170.779 242.374 171.616 241.582 172.629 241.009C173.642 240.437 174.743 240.172 175.932 240.172C176.857 240.172 177.738 240.348 178.619 240.745C179.5 241.141 180.249 241.714 180.909 242.551C181.57 243.343 181.966 244.356 182.099 245.59H178.663C178.487 244.797 178.135 244.18 177.65 243.828C177.166 243.476 176.549 243.299 175.844 243.299C175.272 243.299 174.743 243.431 174.303 243.696C173.818 243.96 173.466 244.356 173.158 244.841C172.893 245.325 172.717 245.942 172.717 246.647C172.717 247.351 172.849 247.968 173.114 248.452C173.378 248.937 173.774 249.333 174.259 249.554C174.743 249.818 175.272 249.95 175.844 249.95C176.549 249.95 177.166 249.774 177.65 249.421C178.135 249.069 178.487 248.452 178.663 247.66H182.099C181.966 248.849 181.57 249.862 180.909 250.699C180.249 251.536 179.5 252.108 178.619 252.504C177.738 252.901 176.813 253.077 175.888 253.077C174.743 252.989 173.642 252.725 172.629 252.108Z" fill="#BB1F49"></path></g><mask id="mask28_4150_3747" style="mask-type:luminance" maskUnits="userSpaceOnUse" x="-108" y="-21" width="477" height="331"><path d="M368.316 -20.3906H-107.356V309.938H368.316V-20.3906Z" fill="white"></path></mask><g mask="url(#mask28_4150_3747)"><path d="M183.552 240.48H186.899V244.973H191.523V240.48H194.915V252.681H191.523V247.968H186.899V252.681H183.552V240.48Z" fill="#BB1F49"></path></g><mask id="mask29_4150_3747" style="mask-type:luminance" maskUnits="userSpaceOnUse" x="-108" y="-21" width="477" height="331"><path d="M368.316 -20.3906H-107.356V309.938H368.316V-20.3906Z" fill="white"></path></mask><g mask="url(#mask29_4150_3747)"><path d="M200.465 240.48H197.073V252.681H200.465V240.48Z" fill="#BB1F49"></path></g><mask id="mask30_4150_3747" style="mask-type:luminance" maskUnits="userSpaceOnUse" x="-108" y="-21" width="477" height="331"><path d="M368.316 -20.3906H-107.356V309.938H368.316V-20.3906Z" fill="white"></path></mask><g mask="url(#mask30_4150_3747)"><path d="M205.178 252.108C204.165 251.536 203.372 250.743 202.755 249.774C202.183 248.805 201.874 247.704 201.874 246.559C201.874 245.369 202.183 244.312 202.755 243.343C203.328 242.374 204.165 241.582 205.178 241.009C206.191 240.437 207.292 240.172 208.481 240.172C209.406 240.172 210.287 240.348 211.168 240.745C212.048 241.141 212.797 241.714 213.458 242.551C214.118 243.343 214.515 244.356 214.647 245.59H211.212C211.035 244.797 210.683 244.18 210.199 243.828C209.714 243.476 209.097 243.299 208.393 243.299C207.82 243.299 207.292 243.431 206.851 243.696C206.367 243.96 206.014 244.356 205.706 244.841C205.442 245.325 205.266 245.942 205.266 246.647C205.266 247.351 205.398 247.968 205.662 248.452C205.926 248.937 206.323 249.333 206.807 249.554C207.292 249.818 207.82 249.95 208.393 249.95C209.097 249.95 209.714 249.774 210.199 249.421C210.683 249.069 211.035 248.452 211.212 247.66H214.647C214.515 248.849 214.118 249.862 213.458 250.699C212.797 251.536 212.048 252.108 211.168 252.504C210.287 252.901 209.362 253.077 208.437 253.077C207.292 252.989 206.191 252.725 205.178 252.108Z" fill="#BB1F49"></path></g><mask id="mask31_4150_3747" style="mask-type:luminance" maskUnits="userSpaceOnUse" x="-108" y="-21" width="477" height="331"><path d="M368.316 -20.3906H-107.356V309.938H368.316V-20.3906Z" fill="white"></path></mask><g mask="url(#mask31_4150_3747)"><path d="M222.884 245.942L227.596 252.681H223.588L220.681 248.364L219.448 249.95V252.681H216.101V240.48H219.448V245.457L223.148 240.48H227.112L222.884 245.942Z" fill="#BB1F49"></path></g><mask id="mask32_4150_3747" style="mask-type:luminance" maskUnits="userSpaceOnUse" x="-108" y="-21" width="477" height="331"><path d="M368.316 -20.3906H-107.356V309.938H368.316V-20.3906Z" fill="white"></path></mask><g mask="url(#mask32_4150_3747)"><path d="M228.653 240.48H237.506V243.475H232.044V245.105H236.669V247.924H232.044V249.686H237.55V252.681H228.653V240.48Z" fill="#BB1F49"></path></g><mask id="mask33_4150_3747" style="mask-type:luminance" maskUnits="userSpaceOnUse" x="-108" y="-21" width="477" height="331"><path d="M368.316 -20.3906H-107.356V309.938H368.316V-20.3906Z" fill="white"></path></mask><g mask="url(#mask33_4150_3747)"><path d="M239.134 240.48H242.085L247.194 247.219V240.48H250.541V252.681H247.634L242.481 245.942V252.681H239.134V240.48Z" fill="#BB1F49"></path></g><mask id="mask34_4150_3747" style="mask-type:luminance" maskUnits="userSpaceOnUse" x="-108" y="-21" width="477" height="331"><path d="M368.316 -20.3906H-107.356V309.938H368.316V-20.3906Z" fill="white"></path></mask><g mask="url(#mask34_4150_3747)"><path d="M180.997 194.851C182.759 194.851 184.08 194.367 185.049 193.442C186.018 192.517 186.503 191.284 186.503 189.742C186.503 188.245 186.018 187.055 185.049 186.13C184.08 185.206 182.715 184.721 181.041 184.721C179.323 184.721 177.958 185.206 176.989 186.13C176.02 187.055 175.536 188.289 175.536 189.742C175.536 191.24 176.02 192.473 176.989 193.398C177.958 194.367 179.279 194.851 180.997 194.851Z" fill="#BB1F49"></path></g><mask id="mask35_4150_3747" style="mask-type:luminance" maskUnits="userSpaceOnUse" x="-108" y="-21" width="477" height="331"><path d="M368.316 -20.3906H-107.356V309.938H368.316V-20.3906Z" fill="white"></path></mask><g mask="url(#mask35_4150_3747)"><path d="M213.501 220.793H209.053V220.749H199.451C196.853 211.412 191.568 204.056 183.596 198.683L172.761 204.981C175.58 207.36 177.914 209.826 179.808 212.337C181.658 214.847 183.111 217.666 184.212 220.749H161.794V234.887H207.82H209.097H228.124V190.491H213.545V220.793H213.501Z" fill="#BB1F49"></path></g><mask id="mask36_4150_3747" style="mask-type:luminance" maskUnits="userSpaceOnUse" x="-108" y="-21" width="477" height="331"><path d="M368.316 -20.3906H-107.356V309.938H368.316V-20.3906Z" fill="white"></path></mask><g mask="url(#mask36_4150_3747)"><path d="M250.586 190.491H236.008V234.887H250.586V190.491Z" fill="#BB1F49"></path></g><mask id="mask37_4150_3747" style="mask-type:luminance" maskUnits="userSpaceOnUse" x="-108" y="-21" width="477" height="331"><path d="M368.316 -20.3906H-107.356V309.938H368.316V-20.3906Z" fill="white"></path></mask><g mask="url(#mask37_4150_3747)"><path d="M78.7706 232.332C76.9648 232.332 75.5554 232.861 74.5424 233.874C73.5294 234.887 73.0449 236.208 73.0449 237.838C73.0449 239.467 73.5294 240.833 74.5424 241.846C75.5554 242.859 76.9648 243.387 78.7706 243.387C80.5764 243.387 81.9858 242.859 82.9988 241.846C84.0118 240.833 84.5403 239.467 84.5403 237.838C84.5403 236.208 84.0118 234.887 82.9988 233.874C81.8977 232.861 80.5324 232.332 78.7706 232.332Z" fill="#BB1F49"></path></g><mask id="mask38_4150_3747" style="mask-type:luminance" maskUnits="userSpaceOnUse" x="-108" y="-21" width="477" height="331"><path d="M368.316 -20.3906H-107.356V309.938H368.316V-20.3906Z" fill="white"></path></mask><g mask="url(#mask38_4150_3747)"><path d="M141.578 190.975C136.865 188.465 127.88 186.571 121.582 186.571V198.199C124.974 198.243 131.536 199.74 134.267 201.37C136.997 202.999 139.2 205.246 140.741 208.108C142.327 210.971 143.12 214.186 143.12 217.754V220.881H139.508V217.974C139.42 214.759 138.671 211.984 137.262 209.562C135.852 207.139 133.87 205.29 131.36 204.012C122.287 199.608 111.981 202.207 107.885 204.277C105.286 205.774 103.304 207.8 101.939 210.399C100.573 212.997 99.9126 215.904 99.9126 219.163C99.9126 219.692 99.9567 220.22 100.001 220.749H93.8346H88.3732H86.2591V200.797H71.6806V220.749H68.7296H64.7217H43.6247L42.0392 232.773L53.8429 234.887L47.897 234.094C47.897 235.856 47.3684 237.177 46.3114 238.102C45.2543 239.027 43.4926 239.512 40.9381 239.512H30.0592C28.6058 239.512 27.3726 239.159 26.2274 238.455C25.1263 237.75 24.2455 236.825 23.6729 235.68C23.0563 234.535 22.792 233.346 22.792 232.112C22.792 231.011 22.9682 229.91 23.3646 228.853C23.7169 227.752 24.2895 226.827 24.9942 226.034L15.7891 221.013C13.8071 222.731 12.2215 224.757 11.1204 227.135C10.0193 229.514 9.44678 232.024 9.44678 234.755C9.44678 238.058 10.2396 241.053 11.8692 243.828C13.4988 246.603 15.745 248.805 18.6519 250.434C20.1494 251.271 21.735 251.888 23.4086 252.284C23.6729 251.8 24.0253 251.359 24.4217 250.963C25.6549 249.73 27.3285 249.113 29.4867 249.113C31.5567 249.113 33.2744 249.73 34.5077 250.963C34.86 251.315 35.1683 251.712 35.4326 252.152C35.6968 251.712 36.0051 251.315 36.3575 250.963C37.5907 249.73 39.2644 249.113 41.4225 249.113C43.4926 249.113 45.1663 249.73 46.3995 250.963C46.8399 251.403 47.2363 251.932 47.5006 252.46C49.4825 252.108 51.2883 251.58 52.9179 250.831C55.9129 249.466 58.2032 247.572 59.8328 245.149C61.4624 242.683 62.2552 239.864 62.2552 236.605V234.887H62.5635H68.7296H71.6806C72.0329 234.006 72.5174 233.257 73.1781 232.553C74.5434 231.187 76.3933 230.483 78.7716 230.483C81.0619 230.483 82.9117 231.187 84.2771 232.509C84.9378 233.169 85.4663 233.962 85.8186 234.843L156.333 234.887V216.433C156.333 210.839 155.055 205.774 152.501 201.37C149.946 196.965 146.291 193.486 141.578 190.975ZM126.647 220.837H112.994C112.597 220 112.421 219.075 112.421 217.974C112.421 216.521 112.817 215.376 113.61 214.583C114.403 213.79 115.548 213.394 116.958 213.394C118.367 213.394 126.867 212.909 126.647 217.974V220.837Z" fill="#BB1F49"></path></g><mask id="mask39_4150_3747" style="mask-type:luminance" maskUnits="userSpaceOnUse" x="-108" y="-21" width="477" height="331"><path d="M368.316 -20.3906H-107.356V309.938H368.316V-20.3906Z" fill="white"></path></mask><g mask="url(#mask39_4150_3747)"><path d="M29.3992 250.963C27.8136 250.963 26.6244 251.403 25.6995 252.284C24.8186 253.165 24.3782 254.31 24.3782 255.72C24.3782 257.173 24.8186 258.318 25.6995 259.199C26.5804 260.08 27.8136 260.52 29.3551 260.52C30.9407 260.52 32.1739 260.08 33.0548 259.199C33.9357 258.318 34.3761 257.129 34.3761 255.72C34.3761 254.31 33.9357 253.165 33.0548 252.284C32.1739 251.403 30.9407 250.963 29.3992 250.963Z" fill="#BB1F49"></path></g><mask id="mask40_4150_3747" style="mask-type:luminance" maskUnits="userSpaceOnUse" x="-108" y="-21" width="477" height="331"><path d="M368.316 -20.3906H-107.356V309.938H368.316V-20.3906Z" fill="white"></path></mask><g mask="url(#mask40_4150_3747)"><path d="M41.3349 250.919C39.7494 250.919 38.5162 251.359 37.6353 252.24C36.7544 253.121 36.314 254.31 36.314 255.72C36.314 257.173 36.7544 258.318 37.6353 259.243C38.5162 260.124 39.7494 260.608 41.3349 260.608C42.9205 260.608 44.1537 260.168 45.0346 259.243C45.9155 258.362 46.3559 257.173 46.3559 255.72C46.3559 254.31 45.9155 253.121 44.9906 252.24C44.1097 251.359 42.8765 250.919 41.3349 250.919Z" fill="#BB1F49"></path></g></g></g><defs><linearGradient id="paint0_linear_4150_3747" x1="154.643" y1="91.3712" x2="171.604" y2="68.2682" gradientUnits="userSpaceOnUse"><stop stop-color="#EDD299"></stop><stop offset="0.0682457" stop-color="#EDD299"></stop><stop offset="0.2225" stop-color="#E9CC91"></stop><stop offset="0.4818" stop-color="#DEBB7B"></stop><stop offset="0.5891" stop-color="#D9B371"></stop><stop offset="0.6732" stop-color="#CBA365"></stop><stop offset="0.8148" stop-color="#AC834A"></stop><stop offset="0.9958" stop-color="#815928"></stop><stop offset="1" stop-color="#805827"></stop></linearGradient><linearGradient id="paint1_linear_4150_3747" x1="163.438" y1="92.2131" x2="178.876" y2="68.4745" gradientUnits="userSpaceOnUse"><stop stop-color="#EDD299"></stop><stop offset="0.0682457" stop-color="#EDD299"></stop><stop offset="0.2225" stop-color="#E9CC91"></stop><stop offset="0.4818" stop-color="#DEBB7B"></stop><stop offset="0.5891" stop-color="#D9B371"></stop><stop offset="0.6732" stop-color="#CBA365"></stop><stop offset="0.8148" stop-color="#AC834A"></stop><stop offset="0.9958" stop-color="#815928"></stop><stop offset="1" stop-color="#805827"></stop></linearGradient><linearGradient id="paint2_linear_4150_3747" x1="97.2098" y1="79.3616" x2="187.48" y2="126.293" gradientUnits="userSpaceOnUse"><stop stop-color="#EDD299"></stop><stop offset="0.0682457" stop-color="#EDD299"></stop><stop offset="0.2225" stop-color="#E9CC91"></stop><stop offset="0.4818" stop-color="#DEBB7B"></stop><stop offset="0.5891" stop-color="#D9B371"></stop><stop offset="0.6732" stop-color="#CBA365"></stop><stop offset="0.8148" stop-color="#AC834A"></stop><stop offset="0.9958" stop-color="#815928"></stop><stop offset="1" stop-color="#805827"></stop></linearGradient><linearGradient id="paint3_linear_4150_3747" x1="67.4659" y1="79.5408" x2="151.74" y2="79.4326" gradientUnits="userSpaceOnUse"><stop stop-color="#EDD299"></stop><stop offset="0.0682457" stop-color="#EDD299"></stop><stop offset="0.2225" stop-color="#E9CC91"></stop><stop offset="0.4818" stop-color="#DEBB7B"></stop><stop offset="0.5891" stop-color="#D9B371"></stop><stop offset="0.6732" stop-color="#CBA365"></stop><stop offset="0.8148" stop-color="#AC834A"></stop><stop offset="0.9958" stop-color="#815928"></stop><stop offset="1" stop-color="#805827"></stop></linearGradient><linearGradient id="paint4_linear_4150_3747" x1="74.3445" y1="43.7932" x2="153.894" y2="33.4904" gradientUnits="userSpaceOnUse"><stop stop-color="#EDD299"></stop><stop offset="0.0682457" stop-color="#EDD299"></stop><stop offset="0.2225" stop-color="#E9CC91"></stop><stop offset="0.4818" stop-color="#DEBB7B"></stop><stop offset="0.5891" stop-color="#D9B371"></stop><stop offset="0.6732" stop-color="#CBA365"></stop><stop offset="0.8148" stop-color="#AC834A"></stop><stop offset="0.9958" stop-color="#815928"></stop><stop offset="1" stop-color="#805827"></stop></linearGradient><linearGradient id="paint5_linear_4150_3747" x1="90.632" y1="149.485" x2="148.19" y2="37.5515" gradientUnits="userSpaceOnUse"><stop stop-color="#EDD299"></stop><stop offset="0.0682457" stop-color="#EDD299"></stop><stop offset="0.2225" stop-color="#E9CC91"></stop><stop offset="0.4818" stop-color="#DEBB7B"></stop><stop offset="0.5891" stop-color="#D9B371"></stop><stop offset="0.6732" stop-color="#CBA365"></stop><stop offset="0.8148" stop-color="#AC834A"></stop><stop offset="0.9958" stop-color="#815928"></stop><stop offset="1" stop-color="#805827"></stop></linearGradient><linearGradient id="paint6_linear_4150_3747" x1="146.804" y1="36.9786" x2="161.314" y2="43.6354" gradientUnits="userSpaceOnUse"><stop stop-color="#EDD299"></stop><stop offset="0.0682457" stop-color="#EDD299"></stop><stop offset="0.2225" stop-color="#E9CC91"></stop><stop offset="0.4818" stop-color="#DEBB7B"></stop><stop offset="0.5891" stop-color="#D9B371"></stop><stop offset="0.6732" stop-color="#CBA365"></stop><stop offset="0.8148" stop-color="#AC834A"></stop><stop offset="0.9958" stop-color="#815928"></stop><stop offset="1" stop-color="#805827"></stop></linearGradient><clipPath id="clip0_4150_3747"><rect width="261" height="261" fill="white"></rect></clipPath></defs></svg>