<svg width="127" height="35" viewBox="0 0 127 35" fill="none" xmlns="http://www.w3.org/2000/svg">
<path d="M0.268555 0H5.44026L9.3857 7.19773L13.3311 0H18.5028V19.5139H13.5444V8.53064L9.3857 15.7817H9.27906L5.17368 8.58396V19.5139H0.268555V0Z" fill="white"/>
<path d="M22.1768 11.8357V0.0527344H27.2418V11.889C27.2418 14.2349 28.3615 15.3546 30.1209 15.3546C31.8803 15.3546 33 14.2882 33 11.9956V0.0527344H38.0651V11.7824C38.0651 17.4339 34.8661 19.9398 30.0676 19.9398C25.3224 19.8865 22.1768 17.3806 22.1768 11.8357Z" fill="white"/>
<path d="M41.7471 0H46.7588V15.0353H54.4364V19.5139H41.7471V0Z" fill="white"/>
<path d="M58.9137 4.5319H54.1152V0H68.7773V4.5319H63.9788V19.5139H58.9137V4.5319Z" fill="white"/>
<path d="M76.8809 0H71.8691V19.5139H76.8809V0Z" fill="white"/>
<path d="M80.8311 0H87.8155C92.4007 0 95.4398 2.39923 95.4398 6.77119V6.87783C95.4398 11.5697 92.0275 13.809 87.7622 13.8623H85.8428V19.5139H80.8311V0ZM87.6022 9.75692C89.3617 9.75692 90.428 8.7439 90.428 7.09109V6.98447C90.428 5.22502 89.415 4.26532 87.6022 4.26532H85.8961V9.75692H87.6022Z" fill="white"/>
<path d="M98.3154 0H103.327V15.0353H111.005V19.5139H98.3154V0Z" fill="white"/>
<path d="M115.698 12.2095L109.406 0H114.951L118.203 7.09109L121.509 0H127.001L120.709 12.1562V19.5139H115.698V12.2095Z" fill="white"/>
<path d="M4.79849 29.7489H6.71789V31.2951C6.34467 31.5083 5.91813 31.615 5.33165 31.615C3.78547 31.615 2.77247 30.3354 2.77247 28.416V28.3094C2.77247 26.4966 3.78548 25.1637 5.22503 25.1637C6.18473 25.1637 6.71789 25.4836 7.30437 26.0167L7.46431 26.1767L9.06381 24.0973L8.90387 23.9374C7.83754 23.031 6.71789 22.6045 5.22503 22.6045C2.18599 22.6045 0 25.0037 0 28.3094V28.4693C0 31.8816 2.07935 34.1209 5.17171 34.1209C6.61126 34.1209 7.89086 33.6943 9.11714 32.7346L9.22375 32.6813V27.3497H4.69186V29.7489H4.79849Z" fill="#9B9FA2"/>
<path d="M22.7656 26.5511V26.4978C22.7656 25.3781 22.4457 24.4718 21.8059 23.832C21.1128 23.1388 20.0465 22.7656 18.7136 22.7656H14.4482V33.9621H17.1141V30.4432H18.1271L20.0998 33.9621H23.1921L20.8462 29.8567C22.1258 29.2169 22.7656 28.044 22.7656 26.5511ZM17.1674 25.2182H18.5536C19.5666 25.2182 20.0998 25.698 20.0998 26.6044C20.0998 27.4575 19.5666 27.9907 18.6069 27.9907H17.2207V25.2182H17.1674Z" fill="#9B9FA2"/>
<path d="M32.4694 22.5518C29.4836 22.5518 27.4043 24.8977 27.4043 28.2566V28.4166C27.4043 31.7755 29.4836 34.0681 32.4694 34.0681C35.4018 34.0681 37.5344 31.6689 37.5344 28.3633V28.2033C37.5344 24.8977 35.4551 22.5518 32.4694 22.5518ZM30.1234 28.31C30.1234 26.3906 31.0298 25.111 32.4694 25.111C33.8556 25.111 34.8153 26.3906 34.8153 28.31V28.4166C34.8153 30.336 33.9089 31.6156 32.5227 31.6156C31.1364 31.6156 30.1768 30.336 30.1768 28.4166V28.31H30.1234Z" fill="#9B9FA2"/>
<path d="M48.3601 29.5897C48.3601 30.4961 48.0936 31.5624 46.7073 31.5624C45.3744 31.5624 45.0545 30.4428 45.0545 29.5364V22.7119H42.3887V29.5364C42.3887 32.4155 43.9349 34.1216 46.654 34.1216C49.4265 34.1216 50.9727 32.4688 50.9727 29.5364V22.8185H48.3068V29.5897H48.3601Z" fill="#9B9FA2"/>
<path d="M60.0892 22.7656H56.3037V33.9621H58.9695V30.7098H59.9825C62.595 30.6565 64.1945 29.1103 64.1945 26.7111V26.6577C64.2479 24.2585 62.6484 22.7656 60.0892 22.7656ZM58.9695 25.2182H59.9292C60.9956 25.2182 61.5287 25.698 61.5287 26.7111C61.5287 27.6174 60.9422 28.2039 59.9825 28.2039H58.9695V25.2182Z" fill="#9B9FA2"/>
</svg>
